<?xml version="1.0" encoding="UTF-8"?>
<svg width="20px" height="20px" viewBox="0 0 20 20" version="1.1" xmlns="http://www.w3.org/2000/svg" xmlns:xlink="http://www.w3.org/1999/xlink">
    <!-- Generator: Sketch 54.1 (76490) - https://sketchapp.com -->
    <title>magnifying-glass</title>
    <desc>Created with Sketch.</desc>
    <g id="Page-1" stroke="none" stroke-width="1" fill="none" fill-rule="evenodd">
        <g id="HOME" transform="translate(-1278.000000, -48.000000)" fill="#000000" fill-rule="nonzero">
            <g id="magnifying-glass" transform="translate(1278.000000, 48.000000)">
                <path d="M13.3562629,2.28823228 C10.3050847,-0.762744093 5.33906573,-0.762744093 2.28788756,2.28823228 C-0.762629186,5.33987004 -0.762629186,10.3048992 2.28788756,13.356537 C5.00504341,16.0728517 9.23687474,16.3638618 12.2860686,14.242795 C12.3502274,14.5463715 12.4970649,14.8360588 12.7331955,15.0721738 L17.1766846,19.515369 C17.8242249,20.1615437 18.8706077,20.1615437 19.5148408,19.515369 C20.1617197,18.8685329 20.1617197,17.8222193 19.5148408,17.1773674 L15.0713518,12.7328494 C14.836544,12.4987186 14.5461761,12.3512294 14.2425796,12.2870749 C16.3651095,9.23742125 16.0740802,5.00653119 13.3562629,2.28823228 Z M11.9533692,11.953736 C9.67540306,14.2315514 5.96808599,14.2315514 3.69078131,11.953736 C1.41413807,9.67592057 1.41413807,5.96951008 3.69078131,3.69169464 C5.96808599,1.41454058 9.67540306,1.41454058 11.9533692,3.69169464 C14.2313353,5.96951008 14.2313353,9.67592057 11.9533692,11.953736 Z" id="Shape"></path>
            </g>
        </g>
    </g>
</svg>