<?xml version="1.0" encoding="UTF-8"?>
<svg width="21px" height="18px" viewBox="0 0 21 18" version="1.1" xmlns="http://www.w3.org/2000/svg" xmlns:xlink="http://www.w3.org/1999/xlink">
    <!-- Generator: Sketch 54.1 (76490) - https://sketchapp.com -->
    <title>arrow copy</title>
    <desc>Created with Sketch.</desc>
    <g id="Page-1" stroke="none" stroke-width="1" fill="none" fill-rule="evenodd">
        <g id="HOME" transform="translate(-1278.000000, -425.000000)" fill="#FFFFFF" fill-rule="nonzero">
            <g id="arrow-copy" transform="translate(1288.500000, 434.000000) scale(-1, 1) translate(-1288.500000, -434.000000) translate(1278.000000, 425.000000)">
                <path d="M20.125,8.10012066 L2.6691875,8.10012066 L9.3533125,1.55180048 C9.7033125,1.20890466 9.716875,0.639211599 9.3835,0.279215987 C9.0505625,-0.0803296307 8.4966875,-0.0947294551 8.14625,0.248166366 L0.51275,7.72707521 C0.1824375,8.06727106 0,8.51906556 0,9.00010969 C0,9.48070384 0.1824375,9.93294832 0.5280625,10.287994 L8.1466875,17.751603 C8.316,17.917651 8.533,18 8.75,18 C8.981,18 9.212,17.9064011 9.3839375,17.7205534 C9.7173125,17.3605578 9.70375,16.7913147 9.35375,16.4484189 L2.641625,9.90009872 L20.125,9.90009872 C20.608,9.90009872 21,9.49690364 21,9.00010969 C21,8.50331575 20.608,8.10012066 20.125,8.10012066 L20.125,8.10012066 Z" id="Path"></path>
            </g>
        </g>
    </g>
</svg>