<?xml version="1.0" encoding="UTF-8"?>
<svg width="35px" height="35px" viewBox="0 0 35 35" version="1.1" xmlns="http://www.w3.org/2000/svg" xmlns:xlink="http://www.w3.org/1999/xlink">
    <!-- Generator: Sketch 54.1 (76490) - https://sketchapp.com -->
    <title>arrow-in-circle-point-to-up</title>
    <desc>Created with Sketch.</desc>
    <g id="Page-1" stroke="none" stroke-width="1" fill="none" fill-rule="evenodd">
        <g id="HOME" transform="translate(-1349.000000, -1882.000000)" fill="#CEB888" fill-rule="nonzero">
            <g id="arrow-in-circle-point-to-up" transform="translate(1349.000000, 1882.000000)">
                <path d="M17.5,0 C7.83481165,0 0,7.83298006 0,17.5011799 C0,27.1693798 7.83717133,35 17.5,35 C27.1628287,35 35,27.1646601 35,17.4988201 C35,7.83298006 27.1651884,0 17.5,0 Z M17.5,32.6561605 C9.14259228,32.6561605 2.34368153,25.8591511 2.34368153,17.4964602 C2.34368153,9.13376934 9.14251854,2.33911986 17.5,2.33911986 C25.8574815,2.33911986 32.6563185,9.14084887 32.6563185,17.4964602 C32.6563185,25.8520716 25.8597674,32.6561605 17.5,32.6561605 Z" id="Shape"></path>
                <path d="M18.8533254,12.3076615 C18.6177401,12.0996829 18.3100801,12 18,12 C17.6899199,12 17.3822599,12.0997496 17.1466746,12.3076615 L9.3515628,19.1893841 C8.8828124,19.6032048 8.8828124,20.2758805 9.3515628,20.6896345 C9.82031319,21.1034552 10.5822784,21.1034552 11.0509531,20.6896345 L18,14.554899 L24.9490469,20.6896345 C25.4177973,21.1034552 26.1797624,21.1034552 26.6484372,20.6896345 C27.1171876,20.2758137 27.1171876,19.603138 26.6484372,19.1893841 L18.8533254,12.3076615 Z" id="Shape"></path>
            </g>
        </g>
    </g>
</svg>