<?xml version="1.0" encoding="UTF-8"?>
<svg width="23px" height="19px" viewBox="0 0 23 19" version="1.1" xmlns="http://www.w3.org/2000/svg" xmlns:xlink="http://www.w3.org/1999/xlink">
    <!-- Generator: Sketch 54.1 (76490) - https://sketchapp.com -->
    <title>social-twitter-circular-button</title>
    <desc>Created with Sketch.</desc>
    <g id="Page-1" stroke="none" stroke-width="1" fill="none" fill-rule="evenodd">
        <g id="HOME" transform="translate(-1275.000000, -2076.000000)" fill="#FFFFFF" fill-rule="nonzero">
            <g id="social-twitter-circular-button" transform="translate(1275.000000, 2076.000000)">
                <path d="M22.5576923,2.32456499 C22.1851863,2.54064276 21.0676683,2.9715332 20.0254808,3.07965643 C20.6936937,2.70088778 21.683098,1.46008523 21.9274038,0.474409624 C21.285021,0.905300071 19.8095102,1.53388228 19.080912,1.53388228 C19.080912,1.53388228 19.080912,1.53582209 19.0822942,1.53717152 C18.250462,0.623268821 17.0813702,0.0539772727 15.7828688,0.0539772727 C13.2643066,0.0539772727 11.2207069,2.20134499 11.2207069,4.85078569 C11.2207069,5.21850586 11.2622596,5.57568359 11.3379357,5.91953569 L11.3364671,5.91953569 C7.91877629,5.82726829 3.92340745,4.02645153 1.67187124,0.943505859 C0.289659706,3.46120827 1.48561824,6.26077326 3.05537861,7.28085938 C2.51951247,7.32437855 1.52881235,7.21625533 1.06317984,6.74049627 C1.03078425,8.41016513 1.79609751,10.624161 4.58220403,11.4265669 C4.0447829,11.7310325 3.0971905,11.6440785 2.68304537,11.5767756 C2.8287823,12.989462 4.70772611,14.8342196 6.76074219,14.8342196 C6.02903395,15.7226518 3.5321552,17.3396085 0.442221304,16.8242942 C2.54136869,18.1685813 4.98848783,18.9460227 7.57866587,18.9460227 C14.9393742,18.9460227 20.6557692,12.6746227 20.3480544,4.93782404 C20.3480544,4.9285467 20.3453764,4.91935369 20.3453764,4.91142578 C20.3453764,4.89034091 20.3480544,4.86925604 20.3480544,4.85078569 C20.3480544,4.82708629 20.3453764,4.8033869 20.3453764,4.77833807 C21.0148851,4.29861506 21.9137545,3.44729226 22.5576923,2.32456499 Z" id="Shape"></path>
            </g>
        </g>
    </g>
</svg>