<?xml version="1.0" encoding="UTF-8"?>
<svg width="61px" height="43px" viewBox="0 0 61 43" version="1.1" xmlns="http://www.w3.org/2000/svg" xmlns:xlink="http://www.w3.org/1999/xlink">
    <!-- Generator: Sketch 54.1 (76490) - https://sketchapp.com -->
    <title>Group 14</title>
    <desc>Created with Sketch.</desc>
    <defs>
        <polygon id="path-1" points="0 0.107485902 7.02999398 0.107485902 7.02999398 7.48059016 0 7.48059016"></polygon>
        <polygon id="path-3" points="0 42.295082 60.9718376 42.295082 60.9718376 0.0832367213 0 0.0832367213"></polygon>
    </defs>
    <g id="Page-1" stroke="none" stroke-width="1" fill="none" fill-rule="evenodd">
        <g id="HOME" transform="translate(-690.000000, -37.000000)">
            <g id="Group-14" transform="translate(690.000000, 37.000000)">
                <polygon id="Fill-1" fill="#000000" points="21.3175884 0 13.3218391 10.6990536 21.973663 21.147541 24.6720288 21.147541 15.9635454 10.6307278 22.3277015 2.11513115 39.316673 2.11513115 44.3861989 8.89847282 46.9770115 8.89847282 40.3265643 0"></polygon>
                <polygon id="Fill-2" fill="#BC9143" points="45.702836 10.5737705 30.6493811 28.4710958 25.8715835 22.7908252 23.137931 22.7908252 30.6493811 31.7213115 48.3793103 10.6418038 48.3276366 10.5737705"></polygon>
                <g id="Group-13">
                    <g id="Group-5" transform="translate(0.000000, 34.738361)">
                        <mask id="mask-2" fill="white">
                            <use xlink:href="#path-1"></use>
                        </mask>
                        <g id="Clip-4"></g>
                        <path d="M5.32344106,1.77131803 C4.85124763,1.29287607 4.12837536,1.05365508 3.15538084,1.05365508 L1.03039909,1.05365508 L1.03039909,6.53442098 L2.79060529,6.53442098 C3.82081515,6.53442098 4.61325858,6.30433574 5.16782427,5.84393967 C5.72227865,5.38354361 5.99967281,4.70400262 5.99967281,3.80486557 C5.99967281,2.90606689 5.77426223,2.22810492 5.32344106,1.77131803 M5.81711807,6.55630164 C5.06586077,7.17256918 4.04622573,7.48059016 2.75832427,7.48059016 L-3.33941606e-05,7.48059016 L-3.33941606e-05,0.107485902 L3.16617828,0.107485902 C4.43259617,0.107485902 5.39857792,0.440996721 6.06401223,1.10801836 C6.70796296,1.75327213 7.02999398,2.65229639 7.02999398,3.80486557 C7.02999398,4.98675934 6.62570201,5.90371672 5.81711807,6.55630164" id="Fill-3" fill="#BC9143" mask="url(#mask-2)"></path>
                    </g>
                    <mask id="mask-4" fill="white">
                        <use xlink:href="#path-3"></use>
                    </mask>
                    <g id="Clip-7"></g>
                    <polygon id="Fill-6" fill="#BC9143" mask="url(#mask-4)" points="9.65937226 42.2189508 10.6896934 42.2189508 10.6896934 34.8458466 9.65937226 34.8458466"></polygon>
                    <path d="M16.7106606,36.3792745 L15.3583084,39.0978896 L18.0200456,39.0978896 L16.7106606,36.3792745 Z M19.5118741,42.2189283 L18.4708668,40.043946 L14.8860036,40.043946 L13.8235128,42.2189283 L12.6644015,42.2189283 L16.3134927,34.845824 L17.1185146,34.845824 L20.6388157,42.2189283 L19.5118741,42.2189283 Z" id="Fill-8" fill="#BC9143" mask="url(#mask-4)"></path>
                    <polygon id="Fill-9" fill="#BC9143" mask="url(#mask-4)" points="29.9761458 42.2189621 29.9761458 37.0208401 27.1964159 42.2189621 26.4558447 42.2189621 23.6760035 37.0208401 23.6760035 42.2189621 22.6456823 42.2189621 22.6456823 34.8458578 23.6545199 34.8458578 26.8207316 40.7725831 29.9976294 34.8458578 31.006467 34.8458578 31.006467 42.2189621"></polygon>
                    <path d="M39.9252569,36.5259877 C39.3887241,36.0583732 38.6301201,35.824566 37.6498901,35.824566 C36.6695489,35.824566 35.9147296,36.0602906 35.3853208,36.5315142 C34.8556894,37.0028506 34.5910964,37.6732559 34.5910964,38.5432939 C34.5910964,39.4133319 34.8593628,40.0983995 35.3961182,40.5984965 C35.9327624,41.0988191 36.6839084,41.3489805 37.6498901,41.3489805 C38.6301201,41.3489805 39.3887241,41.1007365 39.9252569,40.6040231 C40.4619011,40.1075352 40.7301675,39.4205503 40.7301675,38.5432939 C40.7301675,37.6661503 40.4619011,36.9936021 39.9252569,36.5259877 M40.6497989,41.2837896 C39.9091164,41.9579169 38.9091839,42.2950369 37.6498901,42.2950369 C36.3834723,42.2950369 35.3835398,41.9598342 34.6500927,41.2890906 C33.9166456,40.6186854 33.5500891,39.703307 33.5500891,38.5432939 C33.5500891,37.3833936 33.9257734,36.4770382 34.6769193,35.824566 C35.399569,35.193749 36.390485,34.8785096 37.6498901,34.8785096 C38.9091839,34.8785096 39.9038847,35.193749 40.6335471,35.824566 C41.3849157,36.4770382 41.7604887,37.3833936 41.7604887,38.5432939 C41.7604887,39.6959759 41.3902588,40.6094369 40.6497989,41.2837896" id="Fill-10" fill="#BC9143" mask="url(#mask-4)"></path>
                    <path d="M50.2285354,42.2189621 L45.3130263,36.4987496 L45.3130263,42.2189621 L44.2825938,42.2189621 L44.2825938,34.8458578 L45.2056084,34.8458578 C45.8281869,35.599951 46.654581,36.5640532 47.6849022,37.7385031 C48.9299478,39.1522867 49.7455445,40.0839064 50.1320263,40.5333621 L50.1320263,34.8458578 L51.1623474,34.8458578 L51.1623474,42.2189621 L50.2285354,42.2189621 Z" id="Fill-11" fill="#BC9143" mask="url(#mask-4)"></path>
                    <path d="M59.265396,36.5096787 C58.7932026,36.0312367 58.0704416,35.7920157 57.0973358,35.7920157 L54.972354,35.7920157 L54.972354,41.2727816 L56.7324489,41.2727816 C57.7628814,41.2727816 58.5552135,41.0426964 59.1098905,40.5823003 C59.6642336,40.1219043 59.9415164,39.4423633 59.9415164,38.5432262 C59.9415164,37.6444275 59.7162172,36.9664656 59.265396,36.5096787 M59.7591843,41.2946623 C59.0078157,41.9109298 57.9881807,42.2189508 56.7002792,42.2189508 L53.9420328,42.2189508 L53.9420328,34.8458466 L57.1081332,34.8458466 C58.3745511,34.8458466 59.3405328,35.1793574 60.0058558,35.846379 C60.6499179,36.4916328 60.9718376,37.390657 60.9718376,38.5432262 C60.9718376,39.72512 60.5675456,40.6420774 59.7591843,41.2946623" id="Fill-12" fill="#BC9143" mask="url(#mask-4)"></path>
                </g>
            </g>
        </g>
    </g>
</svg>